{"title":"CRANK 2-HIGH VOLTAGE 2009-TFKC-RE-ENCODE BY STIG","uid":5037461,"size":841600132,"categoryP":"video","categoryS":"movies","magnet":"?xt=urn:btih:9cdbe1f5582a0d16aec272646656e8f954beb33b&amp;dn=CRANK+2-HIGH+VOLTAGE+2009-TFKC-RE-ENCODE+BY+STIG&amp;tr=udp%3A%2F%2Ftracker.openbittorrent.com%3A80&amp;tr=udp%3A%2F%2Fopen.demonii.com%3A1337&amp;tr=udp%3A%2F%2Ftracker.coppersurfer.tk%3A6969&amp;tr=udp%3A%2F%2Fexodus.desync.com%3A6969","seeders":0,"leechers":1,"uploader":"alanwatson","files":5,"time":1249199393,"description":"Crank 2: High Voltage is the follow up to Crank's electrifying success, keeping alive hitman Chev Chelios as he launches himself on an electrifying chase through Los Angeles in pursuit of the Chinese mobster who has stolen his nearly indestructible heart.\n\nFormat : MPEG-4\nFormat profile : Base Media / Version 2\nCodec ID : mp42\nFile size : 800 MiB\nDuration : 1h 35mn\nOverall bit rate : 1 166 Kbps\nEncoded date : UTC 2009-07-29 04:45:12\nTagged date : UTC 2009-07-29 07:12:31\nWriting application : HandBrake 0.9.3 2008112300\n\nVideo\nID : 1\nFormat : AVC\nFormat/Info : Advanced Video Codec\nFormat profile : &lt;a class=&quot;__cf_email__&quot; href=&quot;/cdn-cgi/l/email-protection&quot; data-cfemail=&quot;fcb19d9592bcb0c8d2cc&quot;&gt;[email&amp;#160;protected]&lt;/a&gt;&lt;script cf-hash='f9e31' type=&quot;text/javascript&quot;&gt;\n/* &lt;![CDATA[ */!function(){try{var t=&quot;currentScript&quot;in document?document.currentScript:function(){for(var t=document.getElementsByTagName(&quot;script&quot;),e=t.length;e--;)if(t[e].getAttribute(&quot;cf-hash&quot;))return t[e]}();if(t&amp;&amp;t.previousSibling){var e,r,n,i,c=t.previousSibling,a=c.getAttribute(&quot;data-cfemail&quot;);if(a){for(e=&quot;&quot;,r=parseInt(a.substr(0,2),16),n=2;a.length-n;n+=2)i=parseInt(a.substr(n,2),16)^r,e+=String.fromCharCode(i);e=document.createTextNode(e),c.parentNode.replaceChild(e,c)}}}catch(u){}}();/* ]]&gt; */&lt;/script&gt;\nFormat settings, CABAC : Yes\nFormat settings, ReFrames : 3 frames\nCodec ID : avc1\nCodec ID/Info : Advanced Video Coding\nDuration : 1h 35mn\nBit rate mode : Variable\nBit rate : 1 002 Kbps\nWidth : 624 pixels\nHeight : 352 pixels\nDisplay aspect ratio : 16/9\nFrame rate mode : Variable\nFrame rate : 23.976 fps\nMinimum frame rate : 11.988 fps\nMaximum frame rate : 23.988 fps\nResolution : 24 bits\nColorimetry : 4:2:0\nScan type : Progressive\nBits/(Pixel*Frame) : 0.190\nStream size : 687 MiB (86%)\nWriting library : x264 core 65\n\nAudio\nID : 2\nFormat : AAC\nFormat/Info : Advanced Audio Codec\nFormat version : Version 4\nFormat profile : LC\nFormat settings, SBR : No\nCodec ID : 40\nDuration : 1h 35mn\nBit rate mode : Variable\nBit rate : 160 Kbps\nMaximum bit rate : 250 Kbps\nChannel(s) : 2 channels\nChannel positions : L R\nSampling rate : 48.0 KHz\nResolution : 16 bits\nStream size : 109 MiB (14%)\nEncoded date : UTC 2009-07-29 04:45:12\nTagged date : UTC 2009-07-29 07:12:27","torrent":{"xt":"urn:btih:9cdbe1f5582a0d16aec272646656e8f954beb33b","amp;dn":"CRANK+2-HIGH+VOLTAGE+2009-TFKC-RE-ENCODE+BY+STIG","amp;tr":["udp%3A%2F%2Ftracker.openbittorrent.com%3A80","udp%3A%2F%2Fopen.demonii.com%3A1337","udp%3A%2F%2Ftracker.coppersurfer.tk%3A6969","udp%3A%2F%2Fexodus.desync.com%3A6969"],"infoHash":"9cdbe1f5582a0d16aec272646656e8f954beb33b","infoHashBuffer":{"type":"Buffer","data":[156,219,225,245,88,42,13,22,174,194,114,100,102,86,232,249,84,190,179,59]},"announce":[],"urlList":[]}}